# Blender v2.80 (sub 75) OBJ File: ''
# www.blender.org
mtllib Mi_24_heli_trasera.mtl
o polySurface233.000
v 0.359640 2.084467 -5.704860
v 0.414177 1.941880 -5.659145
v 0.414177 1.941929 -5.615059
v 0.401752 1.935721 -5.611465
v 0.401752 1.935663 -5.662725
v 0.389327 1.941929 -5.615059
v 0.389327 1.941880 -5.659145
v 0.420183 2.038230 -5.669993
v 0.420183 2.038482 -5.604590
v 0.412153 1.991861 -5.618706
v 0.412153 1.991819 -5.655612
v 0.401752 2.029286 -5.599235
v 0.401752 1.986663 -5.615696
v 0.401752 2.028994 -5.675279
v 0.401752 1.986615 -5.658608
v 0.383318 2.038482 -5.604590
v 0.391351 1.991861 -5.618706
v 0.383318 2.038230 -5.669993
v 0.414177 1.985700 -5.615108
v 0.414177 1.985650 -5.659194
v 0.401752 1.979491 -5.611516
v 0.401752 1.979433 -5.662775
v 0.389327 1.985699 -5.615108
v 0.420183 2.133351 -5.615938
v 0.420183 2.095289 -5.593627
v 0.420183 2.056937 -5.615436
v 0.420183 2.056646 -5.659554
v 0.420183 2.094708 -5.681863
v 0.420183 2.133061 -5.660056
v 0.420183 2.151853 -5.605416
v 0.420183 2.095429 -5.572343
v 0.420183 2.094589 -5.702832
v 0.420183 2.151456 -5.670527
v 0.414176 2.153396 -5.494524
v 0.414176 2.191430 -5.516819
v 0.401751 2.197666 -5.513272
v 0.401751 2.153444 -5.487350
v 0.401752 2.095499 -5.561701
v 0.401752 2.160635 -5.675910
v 0.401752 2.161104 -5.600156
v 0.389327 2.191431 -5.516819
v 0.389327 2.153396 -5.494524
v 0.383318 2.095429 -5.572343
v 0.383318 2.094589 -5.702832
v 0.383318 2.151456 -5.670527
v 0.383318 2.151853 -5.605416
v 0.383318 2.133351 -5.615938
v 0.383318 2.095289 -5.593627
v 0.383318 2.056937 -5.615436
v 0.383318 2.056646 -5.659554
v 0.383318 2.094708 -5.681863
v 0.383318 2.133061 -5.660056
v 0.412153 2.163082 -5.558084
v 0.412153 2.131242 -5.539421
v 0.401752 2.168303 -5.555115
v 0.401752 2.131282 -5.533415
v 0.391351 2.163082 -5.558084
v 0.391351 2.131242 -5.539422
v 0.414177 2.169297 -5.554580
v 0.414177 2.131263 -5.532287
v 0.401752 2.175533 -5.551033
v 0.401752 2.131310 -5.525114
v 0.389327 2.169297 -5.554580
v 0.389327 2.131263 -5.532287
v 0.414177 2.189827 -5.759375
v 0.414177 2.151487 -5.781137
v 0.401752 2.151434 -5.788310
v 0.401752 2.196013 -5.763008
v 0.389327 2.151487 -5.781137
v 0.389327 2.189827 -5.759375
v 0.412153 2.129960 -5.735936
v 0.412153 2.162056 -5.717720
v 0.401752 2.129916 -5.741940
v 0.401752 2.167235 -5.720759
v 0.391351 2.129960 -5.735937
v 0.391351 2.162056 -5.717720
v 0.414177 2.129881 -5.743070
v 0.414177 2.168222 -5.721309
v 0.401752 2.129828 -5.750243
v 0.401752 2.174408 -5.724940
v 0.389327 2.129881 -5.743070
v 0.389327 2.168222 -5.721309
v 0.435329 2.192813 -5.688943
v 0.434915 2.207498 -5.650879
v 0.453766 2.207354 -5.650620
v 0.454180 2.192670 -5.688684
v 0.434282 2.194279 -5.612286
v 0.453133 2.194135 -5.612024
v 0.433851 2.139554 -5.611106
v 0.433295 2.104617 -5.590040
v 0.452146 2.104474 -5.589779
v 0.452702 2.139411 -5.610847
v 0.432463 2.080273 -5.543122
v 0.432244 2.039965 -5.549442
v 0.451096 2.039822 -5.549181
v 0.451314 2.080130 -5.542862
v 0.432466 2.013147 -5.580191
v 0.451317 2.013004 -5.579929
v 0.433298 2.037491 -5.627107
v 0.433855 2.036712 -5.667895
v 0.452706 2.036569 -5.667635
v 0.452149 2.037349 -5.626846
v 0.434238 2.006890 -5.712007
v 0.434886 2.031374 -5.745518
v 0.453737 2.031231 -5.745257
v 0.453089 2.006747 -5.711747
v 0.435298 2.071411 -5.753364
v 0.454149 2.071268 -5.753104
v 0.434899 2.102372 -5.707488
v 0.434898 2.138088 -5.687766
v 0.453749 2.137945 -5.687504
v 0.453751 2.102229 -5.707228
v 0.475063 2.109036 -5.663125
v 0.474915 2.114272 -5.649552
v 0.474748 2.093009 -5.649148
v 0.474689 2.109559 -5.635793
v 0.474491 2.097102 -5.628281
v 0.474413 2.082730 -5.630534
v 0.474492 2.073168 -5.641497
v 0.474691 2.072890 -5.656041
v 0.474916 2.082026 -5.667358
v 0.475063 2.096301 -5.670156
v 0.453335 2.152630 -5.649440
v 0.451928 2.064167 -5.596098
v 0.453339 2.062192 -5.699380
v 0.433077 2.064310 -5.596360
v 0.434488 2.062335 -5.699642
v 0.434484 2.152773 -5.649702
v 0.434480 2.117967 -5.670280
v 0.434256 2.125899 -5.649723
v 0.433914 2.118760 -5.628877
v 0.433614 2.099890 -5.617498
v 0.433496 2.078118 -5.620912
v 0.433615 2.063634 -5.637519
v 0.433916 2.063213 -5.659550
v 0.434258 2.077052 -5.676695
v 0.434480 2.098676 -5.680933
v 0.457456 2.060798 -5.584303
v 0.457456 2.045787 -5.579425
v 0.365037 2.045787 -5.579425
v 0.365037 2.060798 -5.584303
v 0.457456 2.045787 -5.563643
v 0.365037 2.045787 -5.563643
v 0.457456 2.060798 -5.558765
v 0.365037 2.060798 -5.558765
v 0.457456 2.070075 -5.571535
v 0.365037 2.070075 -5.571535
v 0.457456 2.056649 -5.571535
v 0.365037 2.056649 -5.571535
v 0.457456 2.176778 -5.660999
v 0.457456 2.161768 -5.656124
v 0.365037 2.176778 -5.660999
v 0.457456 2.161768 -5.640339
v 0.365037 2.161768 -5.640339
v 0.457456 2.176778 -5.635464
v 0.365037 2.176778 -5.635464
v 0.457456 2.186055 -5.648232
v 0.365037 2.186055 -5.648232
v 0.457456 2.172630 -5.648232
v 0.365037 2.172630 -5.648232
v 0.457456 2.057056 -5.728343
v 0.457456 2.042046 -5.723466
v 0.365037 2.042046 -5.723466
v 0.365037 2.057056 -5.728343
v 0.457456 2.042046 -5.707684
v 0.365037 2.042046 -5.707684
v 0.457456 2.057056 -5.702806
v 0.365037 2.057056 -5.702806
v 0.457456 2.066333 -5.715576
v 0.365037 2.066333 -5.715576
v 0.457456 2.052908 -5.715576
v 0.391532 1.944343 -5.676383
v 0.400479 1.956027 -5.600869
v 0.411561 1.956027 -5.600869
v 0.395663 1.944343 -5.676383
v 0.411561 1.855587 -5.601007
v 0.395663 1.855729 -5.703856
v 0.395663 1.216768 -5.704738
v 0.411561 1.216627 -5.601888
v 0.400479 1.216627 -5.601888
v 0.391532 1.216768 -5.704738
v 0.400479 1.855587 -5.601007
v 0.391532 1.855729 -5.703856
v 0.391532 2.192249 -5.740839
v 0.400479 2.121908 -5.770689
v 0.411561 2.121908 -5.770689
v 0.395663 2.192249 -5.740839
v 0.411561 2.174939 -5.855989
v 0.395663 2.262284 -5.801685
v 0.395663 2.599646 -6.344326
v 0.411561 2.512301 -6.398629
v 0.400479 2.512301 -6.398629
v 0.391532 2.599646 -6.344326
v 0.400479 2.174939 -5.855989
v 0.391532 2.262284 -5.801685
v 0.391532 2.131423 -5.500160
v 0.400479 2.188846 -5.550571
v 0.411561 2.188846 -5.550571
v 0.395663 2.131423 -5.500160
v 0.411561 2.242672 -5.465773
v 0.395663 2.155839 -5.410655
v 0.395663 2.498261 -4.871193
v 0.411561 2.585094 -4.926311
v 0.400479 2.585094 -4.926311
v 0.391532 2.498261 -4.871193
v 0.400479 2.242672 -5.465773
v 0.391532 2.155839 -5.410655
vt 0.984263 0.834451
vt 0.973473 0.829956
vt 0.974019 0.826163
vt 0.986570 0.831393
vt 0.918370 0.883877
vt 0.916560 0.870400
vt 0.920364 0.870851
vt 0.921920 0.882437
vt 0.976851 0.860153
vt 0.960463 0.853369
vt 0.968762 0.842876
vt 0.978407 0.846896
vt 0.958094 0.848316
vt 0.966699 0.840150
vt 0.982099 0.858251
vt 0.981795 0.846437
vt 0.942039 0.860732
vt 0.946321 0.864313
vt 0.934063 0.869638
vt 0.931961 0.866942
vt 0.969226 0.840831
vt 0.979531 0.845124
vt 0.966879 0.838111
vt 0.983115 0.844874
vt 0.931967 0.869559
vt 0.929947 0.866589
vt 0.970850 0.827208
vt 0.988060 0.834378
vt 0.918388 0.867608
vt 0.951116 0.866247
vt 0.952798 0.878766
vt 0.948683 0.881895
vt 0.946321 0.864313
vt 0.961126 0.858527
vt 0.972808 0.863328
vt 0.974490 0.875856
vt 0.979178 0.877826
vt 0.964490 0.883571
vt 0.965140 0.888669
vt 0.920365 0.870852
vt 0.921921 0.882437
vt 0.918370 0.883877
vt 0.916560 0.870401
vt 0.942038 0.860732
vt 0.964178 0.894166
vt 0.945498 0.886480
vt 0.974019 0.826163
vt 0.986570 0.831393
vt 0.984262 0.834450
vt 0.973473 0.829956
vt 0.958094 0.848316
vt 0.960463 0.853369
vt 0.982099 0.858251
vt 0.984739 0.878302
vt 0.979178 0.877827
vt 0.976852 0.860153
vt 0.972809 0.863328
vt 0.961126 0.858527
vt 0.951117 0.866247
vt 0.948683 0.881895
vt 0.952798 0.878766
vt 0.965140 0.888668
vt 0.964490 0.883571
vt 0.974490 0.875856
vt 0.935455 0.879994
vt 0.934064 0.869638
vt 0.934139 0.883149
vt 0.931961 0.866942
vt 0.978408 0.846896
vt 0.981796 0.846437
vt 0.968762 0.842876
vt 0.966699 0.840150
vt 0.933454 0.880623
vt 0.931967 0.869559
vt 0.932288 0.884020
vt 0.929947 0.866590
vt 0.979532 0.845124
vt 0.983115 0.844874
vt 0.969226 0.840831
vt 0.966879 0.838112
vt 0.920870 0.886087
vt 0.918388 0.867609
vt 0.988060 0.834378
vt 0.970850 0.827208
vt 0.983713 0.907844
vt 0.992965 0.900700
vt 0.995988 0.903054
vt 0.985225 0.911363
vt 0.995988 0.903055
vt 0.985225 0.911364
vt 0.983714 0.907844
vt 0.992966 0.900701
vt 0.984079 0.890202
vt 0.975809 0.896591
vt 0.974526 0.899759
vt 0.984079 0.890202
vt 0.975810 0.896591
vt 0.987471 0.889768
vt 0.985625 0.891622
vt 0.976789 0.898445
vt 0.987471 0.889769
vt 0.989150 0.890934
vt 0.975229 0.901680
vt 0.974526 0.899759
vt 0.976789 0.898445
vt 0.975230 0.901681
vt 0.985625 0.891622
vt 0.989150 0.890934
vt 0.996651 0.899784
vt 0.981894 0.911178
vt 0.981894 0.911178
vt 0.996652 0.899785
vt 0.832371 0.099985
vt 0.820424 0.113279
vt 0.816129 0.107328
vt 0.826195 0.094534
vt 0.804042 0.120426
vt 0.800814 0.112846
vt 0.781089 0.100856
vt 0.767246 0.094659
vt 0.768685 0.086979
vt 0.785794 0.094628
vt 0.738053 0.090882
vt 0.732608 0.073863
vt 0.739916 0.073158
vt 0.745873 0.088295
vt 0.734690 0.056115
vt 0.742862 0.057146
vt 0.762143 0.045771
vt 0.774433 0.036876
vt 0.780426 0.041893
vt 0.765271 0.052924
vt 0.791720 0.012957
vt 0.809673 0.016147
vt 0.806789 0.022833
vt 0.790356 0.021099
vt 0.824092 0.026822
vt 0.819121 0.033423
vt 0.819375 0.056850
vt 0.820942 0.072048
vt 0.813541 0.074603
vt 0.811599 0.056034
vt 0.796169 0.069705
vt 0.792873 0.074471
vt 0.787930 0.067659
vt 0.787300 0.076123
vt 0.782042 0.073777
vt 0.779566 0.068505
vt 0.780951 0.062839
vt 0.785614 0.059478
vt 0.791383 0.059987
vt 0.795574 0.064001
vt 0.803030 0.089281
vt 0.761263 0.070510
vt 0.798415 0.043746
vt 0.892639 0.858249
vt 0.903731 0.851170
vt 0.916989 0.861887
vt 0.905899 0.868964
vt 0.746108 0.095852
vt 0.907685 0.838619
vt 0.920940 0.849338
vt 0.741278 0.049730
vt 0.902648 0.826461
vt 0.890971 0.820397
vt 0.894172 0.802838
vt 0.905744 0.809568
vt 0.783630 0.017665
vt 0.878130 0.823261
vt 0.881331 0.805704
vt 0.826388 0.035671
vt 0.870129 0.833700
vt 0.870699 0.846843
vt 0.854371 0.853551
vt 0.853802 0.840405
vt 0.832694 0.090631
vt 0.879589 0.856544
vt 0.863260 0.863254
vt 0.795084 0.117809
vt 0.878332 0.836269
vt 0.878639 0.843369
vt 0.883439 0.848605
vt 0.890485 0.849525
vt 0.896478 0.845699
vt 0.898615 0.838917
vt 0.895896 0.832353
vt 0.889592 0.829079
vt 0.882656 0.830627
vt 0.289123 0.237037
vt 0.289159 0.226513
vt 0.341645 0.226694
vt 0.341609 0.237218
vt 0.288978 0.279133
vt 0.289014 0.268610
vt 0.341500 0.268791
vt 0.341464 0.279314
vt 0.289050 0.258086
vt 0.341536 0.258267
vt 0.289086 0.247561
vt 0.341573 0.247742
vt 0.349480 0.321496
vt 0.361022 0.316304
vt 0.358825 0.326844
vt 0.350852 0.334078
vt 0.363242 0.336662
vt 0.369527 0.325677
vt 0.499883 0.182015
vt 0.512726 0.186902
vt 0.502940 0.193296
vt 0.512046 0.200626
vt 0.498782 0.204220
vt 0.491266 0.192717
vt 0.289014 0.268610
vt 0.289050 0.258086
vt 0.341536 0.258267
vt 0.341500 0.268791
vt 0.289086 0.247561
vt 0.341573 0.247742
vt 0.289123 0.237037
vt 0.341609 0.237218
vt 0.349480 0.321496
vt 0.361022 0.316304
vt 0.358825 0.326844
vt 0.350852 0.334078
vt 0.363242 0.336662
vt 0.369527 0.325677
vt 0.512046 0.200626
vt 0.498782 0.204220
vt 0.502940 0.193296
vt 0.491266 0.192717
vt 0.499883 0.182015
vt 0.289123 0.237037
vt 0.289159 0.226513
vt 0.341645 0.226694
vt 0.341609 0.237218
vt 0.288978 0.279133
vt 0.289014 0.268610
vt 0.341500 0.268791
vt 0.341464 0.279314
vt 0.289050 0.258086
vt 0.341536 0.258267
vt 0.289086 0.247561
vt 0.341573 0.247742
vt 0.349480 0.321496
vt 0.361022 0.316304
vt 0.358825 0.326844
vt 0.350852 0.334078
vt 0.363242 0.336662
vt 0.369527 0.325677
vt 0.044529 0.775999
vt 0.010771 0.781122
vt 0.010942 0.786044
vt 0.044590 0.777826
vt 0.044529 0.775998
vt 0.010771 0.781121
vt 0.010917 0.736538
vt 0.056730 0.736768
vt 0.058506 0.451456
vt 0.012444 0.448081
vt 0.012840 0.452975
vt 0.058650 0.453293
vt 0.010917 0.736538
vt 0.056730 0.736769
vt 0.005990 0.736515
vt 0.005859 0.781099
vt 0.060485 0.453338
vt 0.058514 0.737043
vt 0.058651 0.453293
vt 0.012840 0.452975
vt 0.007932 0.452949
vt 0.046296 0.776516
vt 0.044529 0.775999
vt 0.010771 0.781122
vt 0.010942 0.786044
vt 0.044590 0.777826
vt 0.044529 0.775998
vt 0.010771 0.781121
vt 0.010917 0.736538
vt 0.056730 0.736768
vt 0.058506 0.451456
vt 0.012444 0.448081
vt 0.012840 0.452975
vt 0.058650 0.453293
vt 0.010917 0.736538
vt 0.056730 0.736769
vt 0.005990 0.736515
vt 0.005859 0.781099
vt 0.060485 0.453338
vt 0.058514 0.737043
vt 0.058651 0.453293
vt 0.012840 0.452975
vt 0.007932 0.452949
vt 0.046296 0.776516
vt 0.044529 0.775999
vt 0.010771 0.781122
vt 0.010942 0.786044
vt 0.044590 0.777826
vt 0.044529 0.775998
vt 0.010771 0.781121
vt 0.010917 0.736538
vt 0.056730 0.736768
vt 0.058506 0.451456
vt 0.012444 0.448081
vt 0.012840 0.452975
vt 0.058650 0.453293
vt 0.010917 0.736538
vt 0.056730 0.736769
vt 0.005990 0.736515
vt 0.005859 0.781099
vt 0.060485 0.453338
vt 0.058514 0.737043
vt 0.058651 0.453293
vt 0.012840 0.452975
vt 0.007932 0.452949
vt 0.046296 0.776516
vn 0.4472 -0.8944 0.0010
vn -0.4472 -0.8944 0.0010
vn 0.9854 -0.1701 0.0005
vn 0.4107 -0.3284 0.8506
vn 0.4109 -0.3339 -0.8484
vn -0.4107 -0.3284 0.8506
vn 0.9501 0.3119 -0.0004
vn -0.0018 0.5037 0.8639
vn -0.0000 0.5037 0.8639
vn -0.0018 0.5018 -0.8650
vn 0.0018 0.5037 0.8639
vn 1.0000 0.0000 0.0000
vn 0.2773 0.0011 0.9608
vn 0.2774 -0.0011 -0.9608
vn -0.2773 0.0011 0.9608
vn 0.4472 0.4523 0.7716
vn 0.4469 -0.4410 0.7783
vn 0.4472 0.8944 -0.0055
vn -0.4472 0.4523 0.7716
vn -0.4469 -0.4410 0.7783
vn -0.4472 0.8944 -0.0055
vn -1.0000 -0.0000 0.0000
vn 0.9854 0.0860 0.1468
vn 0.4108 0.9003 -0.1439
vn 0.4108 -0.5654 0.7152
vn -0.4108 0.9003 -0.1439
vn -0.9854 0.0861 0.1468
vn -0.4108 -0.5654 0.7152
vn 0.9501 -0.1577 -0.2691
vn -0.0019 0.4916 -0.8708
vn -0.0000 0.4916 -0.8708
vn -0.0000 -1.0000 0.0035
vn -0.0018 -1.0000 0.0035
vn 0.0016 0.4914 -0.8709
vn -0.9501 -0.1577 -0.2691
vn 0.0018 -1.0000 0.0035
vn 0.2774 0.8289 -0.4858
vn 0.2773 -0.8289 0.4858
vn -0.2773 0.8289 -0.4858
vn -0.2773 -0.8289 0.4858
vn 0.4472 0.4415 -0.7779
vn -0.4472 0.4415 -0.7779
vn 0.9853 0.0845 -0.1487
vn 0.4105 0.9022 0.1328
vn -0.9853 0.0845 -0.1488
vn -0.4104 0.9022 0.1328
vn 0.9501 -0.1540 0.2713
vn -0.0019 -0.9999 0.0106
vn 0.0000 -0.9999 0.0106
vn 0.0000 0.5035 0.8640
vn -0.0018 0.5035 0.8640
vn 0.0019 -0.9999 0.0106
vn -0.9501 -0.1540 0.2713
vn 0.0018 0.5035 0.8640
vn 0.2773 -0.8356 -0.4742
vn 0.2774 0.8356 0.4742
vn -0.2773 -0.8356 -0.4742
vn -0.2774 0.8356 0.4742
vn 0.0120 0.9330 -0.3598
vn 0.0028 0.9460 0.3241
vn -0.0079 0.5165 0.8563
vn -0.0148 -0.1548 0.9878
vn -0.0148 -0.7536 0.6572
vn -0.0078 -0.9998 0.0190
vn 0.0020 -0.8075 -0.5899
vn 0.0121 -0.1924 -0.9812
vn 0.0158 0.4833 -0.8753
vn 0.9999 -0.0076 0.0138
vn 0.8576 0.4830 -0.1770
vn 0.8577 0.4820 0.1792
vn 0.8565 0.2565 0.4480
vn 0.8546 -0.0849 0.5123
vn 0.8530 -0.3903 0.3466
vn 0.8522 -0.5227 0.0216
vn 0.8527 -0.4147 -0.3177
vn 0.8542 -0.1084 -0.5084
vn 0.8562 0.2498 -0.4523
vn -0.9999 0.0077 -0.0132
vn -0.9999 0.0074 -0.0135
vn -0.9999 0.0076 -0.0138
vn 0.0004 0.8876 0.4606
vn -0.9999 0.0070 -0.0136
vn -0.0003 -0.8876 -0.4606
vn -0.9999 0.0070 -0.0140
vn -0.9999 0.0074 -0.0141
vn -0.0140 -0.8284 0.5599
vn -0.9999 0.0077 -0.0144
vn 0.0140 0.8289 -0.5593
vn -0.9999 0.0080 -0.0142
vn -0.9999 0.0083 -0.0138
vn 0.0137 -0.0216 -0.9997
vn -0.9999 0.0080 -0.0134
vn -0.0137 0.0216 0.9997
vn -0.9999 0.0083 -0.0144
vn -0.9999 0.0085 -0.0138
vn -0.9999 0.0083 -0.0132
vn -0.9999 0.0078 -0.0129
vn -0.9999 0.0072 -0.0130
vn -0.9999 0.0068 -0.0135
vn -0.9999 0.0067 -0.0141
vn -0.9999 0.0071 -0.0146
vn -0.9999 0.0077 -0.0147
vn 0.0000 -0.3091 -0.9510
vn 0.0000 -1.0000 0.0000
vn 0.0000 -0.3090 0.9511
vn 0.0000 0.8090 0.5878
vn 0.0000 0.8090 -0.5878
vn 0.0000 -0.3089 0.9511
vn 0.0000 -0.3090 -0.9511
vn 0.0000 0.9882 -0.1529
vn 0.9839 0.0259 -0.1771
vn 0.9862 0.0130 -0.1649
vn 0.0000 -1.0000 -0.0014
vn -0.9962 -0.0001 0.0867
vn -0.9956 -0.0074 0.0937
vn -0.9956 -0.0073 0.0936
vn 0.0000 -0.0014 1.0000
vn 0.0000 0.0014 -1.0000
vn 0.0000 0.1504 -0.9886
vn 0.9883 0.0002 -0.1528
vn -0.9948 -0.0147 0.1008
vn 0.0000 0.2961 -0.9551
vn 0.0000 -0.3907 0.9205
vn 0.9839 0.1369 0.1153
vn 0.9862 0.1333 0.0980
vn 0.0000 0.5280 -0.8493
vn -0.9962 -0.0736 -0.0458
vn -0.9956 -0.0757 -0.0557
vn -0.9956 -0.0757 -0.0555
vn 0.0000 -0.8493 -0.5280
vn 0.0000 0.8493 0.5280
vn 0.0000 0.7611 0.6487
vn 0.9883 0.1297 0.0807
vn -0.9948 -0.0779 -0.0656
vn 0.0000 0.6559 0.7549
vn 0.0000 -0.6597 -0.7515
vn 0.9839 -0.1632 0.0733
vn 0.9862 -0.1461 0.0776
vn 0.0000 0.5359 0.8443
vn -0.9962 0.0732 -0.0464
vn -0.9956 0.0830 -0.0441
vn 0.0000 0.8443 -0.5359
vn 0.0000 -0.8443 0.5359
vn 0.0000 -0.9147 0.4041
vn 0.9883 -0.1290 0.0819
vn -0.9948 0.0929 -0.0417
vn 0.0000 -0.9647 0.2632
usemtl phong1SG.001
s 1
f 2/1/1 3/2/1 4/3/1 5/4/1
f 5/5/2 4/6/2 6/7/2 7/8/2
f 8/9/3 9/10/3 10/11/3 11/12/3
f 9/10/4 12/13/4 13/14/4 10/11/4
f 14/15/5 8/9/5 11/12/5 15/16/5
f 12/17/6 16/18/6 17/19/6 13/20/6
f 11/12/7 10/11/7 19/21/7 20/22/7
f 10/11/8 13/14/9 21/23/9 19/21/8
f 15/16/10 11/12/10 20/22/10 22/24/10
f 13/20/9 17/19/11 23/25/11 21/26/9
f 20/22/12 19/21/12 3/2/12 2/1/12
f 19/21/13 21/23/13 4/27/13 3/2/13
f 22/24/14 20/22/14 2/1/14 5/28/14
f 21/26/15 23/25/15 6/7/15 4/29/15
f 25/30/12 24/31/12 30/32/12 31/33/12
f 26/34/12 25/30/12 31/33/12 9/10/12
f 27/35/12 26/34/12 9/10/12 8/9/12
f 28/36/12 27/35/12 8/9/12 32/37/12
f 29/38/12 28/36/12 32/37/12 33/39/12
f 24/31/12 29/38/12 33/39/12 30/32/12
f 34/40/16 35/41/16 36/42/16 37/43/16
f 9/10/17 31/33/17 38/44/17 12/13/17
f 30/32/18 33/39/18 39/45/18 40/46/18
f 37/47/19 36/48/19 41/49/19 42/50/19
f 12/17/20 38/51/20 43/52/20 16/18/20
f 40/53/21 39/54/21 45/55/21 46/56/21
f 43/52/22 46/56/22 47/57/22 48/58/22
f 16/18/22 43/52/22 48/58/22 49/59/22
f 18/60/22 16/18/22 49/59/22 50/61/22
f 44/62/22 18/60/22 50/61/22 51/63/22
f 45/55/22 44/62/22 51/63/22 52/64/22
f 46/56/22 45/55/22 52/64/22 47/57/22
f 31/33/23 30/32/23 53/65/23 54/66/23
f 30/32/24 40/46/24 55/67/24 53/65/24
f 38/44/25 31/33/25 54/66/25 56/68/25
f 40/53/26 46/56/26 57/69/26 55/70/26
f 46/56/27 43/52/27 58/71/27 57/69/27
f 43/52/28 38/51/28 56/72/28 58/71/28
f 54/66/29 53/65/29 59/73/29 60/74/29
f 53/65/30 55/67/31 61/75/31 59/73/30
f 56/68/32 54/66/33 60/74/33 62/76/32
f 55/70/31 57/69/34 63/77/34 61/78/31
f 57/69/35 58/71/35 64/79/35 63/77/35
f 58/71/36 56/72/32 62/80/32 64/79/36
f 60/74/12 59/73/12 35/41/12 34/40/12
f 59/73/37 61/75/37 36/81/37 35/41/37
f 62/76/38 60/74/38 34/40/38 37/82/38
f 61/78/39 63/77/39 41/49/39 36/83/39
f 63/77/22 64/79/22 42/50/22 41/49/22
f 64/79/40 62/80/40 37/84/40 42/50/40
f 65/85/41 66/86/41 67/87/41 68/88/41
f 68/89/42 67/90/42 69/91/42 70/92/42
f 33/39/43 32/37/43 71/93/43 72/94/43
f 39/45/44 33/39/44 72/94/44 74/95/44
f 44/62/45 45/55/45 76/96/45 75/97/45
f 45/55/46 39/54/46 74/98/46 76/96/46
f 72/94/47 71/93/47 77/99/47 78/100/47
f 71/93/48 73/101/49 79/102/49 77/99/48
f 74/95/50 72/94/51 78/100/51 80/103/50
f 73/104/49 75/97/52 81/105/52 79/106/49
f 75/97/53 76/96/53 82/107/53 81/105/53
f 76/96/54 74/98/50 80/108/50 82/107/54
f 78/100/12 77/99/12 66/86/12 65/85/12
f 77/99/55 79/102/55 67/109/55 66/86/55
f 80/103/56 78/100/56 65/85/56 68/110/56
f 79/106/57 81/105/57 69/91/57 67/111/57
f 81/105/22 82/107/22 70/92/22 69/91/22
f 82/107/58 80/108/58 68/112/58 70/92/58
f 83/113/59 84/114/59 85/115/59 86/116/59
f 84/114/60 87/117/60 88/118/60 85/115/60
f 89/119/61 90/120/61 91/121/61 92/122/61
f 93/123/62 94/124/62 95/125/62 96/126/62
f 94/124/63 97/127/63 98/128/63 95/125/63
f 99/129/64 100/130/64 101/131/64 102/132/64
f 103/133/65 104/134/65 105/135/65 106/136/65
f 104/134/66 107/137/66 108/138/66 105/135/66
f 109/139/67 110/140/67 111/141/67 112/142/67
f 113/143/68 114/144/68 115/145/68
f 114/144/68 116/146/68 115/145/68
f 116/146/68 117/147/68 115/145/68
f 117/147/68 118/148/68 115/145/68
f 118/148/68 119/149/68 115/145/68
f 119/149/68 120/150/68 115/145/68
f 120/150/68 121/151/68 115/145/68
f 121/151/68 122/152/68 115/145/68
f 122/152/68 113/143/68 115/145/68
f 114/144/69 113/143/69 111/141/69 123/153/69
f 116/146/70 114/144/70 123/153/70 92/122/70
f 117/147/71 116/146/71 92/122/71 91/121/71
f 118/148/72 117/147/72 91/121/72 124/154/72
f 119/149/73 118/148/73 124/154/73 102/132/73
f 120/150/74 119/149/74 102/132/74 101/131/74
f 121/151/75 120/150/75 101/131/75 125/155/75
f 122/152/76 121/151/76 125/155/76 112/142/76
f 113/143/77 122/152/77 112/142/77 111/141/77
f 90/156/78 126/157/79 94/158/80 93/159/80
f 124/154/68 91/121/68 96/126/68 95/125/68
f 91/121/81 90/120/81 93/160/81 96/126/81
f 126/157/79 99/161/82 97/162/80 94/158/80
f 99/129/83 102/132/83 98/128/83 97/163/83
f 102/132/68 124/154/68 95/125/68 98/128/68
f 100/164/84 127/165/85 104/166/80 103/167/80
f 125/155/68 101/131/68 106/136/68 105/135/68
f 101/131/86 100/130/86 103/168/86 106/136/86
f 127/165/85 109/169/87 107/170/80 104/166/80
f 109/139/88 112/142/88 108/138/88 107/171/88
f 112/142/68 125/155/68 105/135/68 108/138/68
f 110/172/89 128/173/90 84/174/80 83/175/80
f 123/153/68 111/141/68 86/116/68 85/115/68
f 111/141/91 110/140/91 83/176/91 86/116/91
f 128/173/90 89/177/92 87/178/80 84/174/80
f 89/119/93 92/122/93 88/118/93 87/179/93
f 92/122/68 123/153/68 85/115/68 88/118/68
f 128/173/90 110/172/89 129/180/94 130/181/95
f 89/177/92 128/173/90 130/181/95 131/182/96
f 90/156/78 89/177/92 131/182/96 132/183/97
f 126/157/79 90/156/78 132/183/97 133/184/98
f 99/161/82 126/157/79 133/184/98 134/185/99
f 100/164/84 99/161/82 134/185/99 135/186/100
f 127/165/85 100/164/84 135/186/100 136/187/101
f 109/169/87 127/165/85 136/187/101 137/188/102
f 110/172/89 109/169/87 137/188/102 129/180/94
f 138/189/103 139/190/103 140/191/103 141/192/103
f 139/193/104 142/194/104 143/195/104 140/196/104
f 142/194/105 144/197/105 145/198/105 143/195/105
f 144/197/106 146/199/106 147/200/106 145/198/106
f 146/199/107 138/189/107 141/192/107 147/200/107
f 139/201/12 138/202/12 148/203/12
f 142/204/12 139/201/12 148/203/12
f 144/205/12 142/204/12 148/203/12
f 146/206/12 144/205/12 148/203/12
f 138/202/12 146/206/12 148/203/12
f 141/207/22 140/208/22 149/209/22
f 140/208/22 143/210/22 149/209/22
f 143/210/22 145/211/22 149/209/22
f 145/211/22 147/212/22 149/209/22
f 147/212/22 141/207/22 149/209/22
f 153/213/108 155/214/108 156/215/108 154/216/108
f 155/214/106 157/217/106 158/218/106 156/215/106
f 157/217/107 150/219/107 152/220/107 158/218/107
f 151/221/12 150/222/12 159/223/12
f 153/224/12 151/221/12 159/223/12
f 155/225/12 153/224/12 159/223/12
f 157/226/12 155/225/12 159/223/12
f 150/222/12 157/226/12 159/223/12
f 154/227/22 156/228/22 160/229/22
f 156/228/22 158/230/22 160/229/22
f 158/230/22 152/231/22 160/229/22
f 161/232/109 162/233/109 163/234/109 164/235/109
f 162/236/104 165/237/104 166/238/104 163/239/104
f 165/237/105 167/240/105 168/241/105 166/238/105
f 167/240/106 169/242/106 170/243/106 168/241/106
f 169/242/107 161/232/107 164/235/107 170/243/107
f 162/244/12 161/245/12 171/246/12
f 165/247/12 162/244/12 171/246/12
f 167/248/12 165/247/12 171/246/12
f 169/249/12 167/248/12 171/246/12
f 161/245/12 169/249/12 171/246/12
f 172/250/110 173/251/110 174/252/110 175/253/110
f 175/254/111 174/255/111 176/256/112 177/257/112
f 178/258/113 179/259/113 180/260/113 181/261/113
f 181/261/114 180/260/114 182/262/115 183/263/116
f 173/251/117 182/262/117 176/264/117 174/265/117
f 178/266/118 181/261/118 183/263/119 177/267/119
f 178/268/120 177/257/112 176/256/112 179/269/120
f 179/270/117 176/264/117 182/262/117 180/260/117
f 183/263/116 182/262/115 173/251/121 172/250/121
f 177/267/119 183/263/119 172/250/122 175/271/122
f 184/272/123 185/273/123 186/274/123 187/275/123
f 187/276/124 186/277/124 188/278/125 189/279/125
f 190/280/126 191/281/126 192/282/126 193/283/126
f 193/283/127 192/282/127 194/284/128 195/285/129
f 185/273/130 194/284/130 188/286/130 186/287/130
f 190/288/131 193/283/131 195/285/132 189/289/132
f 190/290/133 189/279/125 188/278/125 191/291/133
f 191/292/130 188/286/130 194/284/130 192/282/130
f 195/285/129 194/284/128 185/273/134 184/272/134
f 189/289/132 195/285/132 184/272/135 187/293/135
f 196/294/136 197/295/136 198/296/136 199/297/136
f 199/298/137 198/299/137 200/300/138 201/301/138
f 202/302/139 203/303/139 204/304/139 205/305/139
f 205/305/140 204/304/140 206/306/141 207/307/141
f 197/295/142 206/306/142 200/308/142 198/309/142
f 202/310/143 205/305/143 207/307/144 201/311/144
f 202/312/145 201/301/138 200/300/138 203/313/145
f 203/314/142 200/308/142 206/306/142 204/304/142
f 207/307/141 206/306/141 197/295/146 196/294/146
f 201/311/144 207/307/144 196/294/147 199/315/147
l 14 18
